<svg width="28" height="28" viewBox="0 0 28 28" fill="none" xmlns="http://www.w3.org/2000/svg">
<g clip-path="url(#clip0_566_2188)">
<path d="M0.688721 27.3462L2.56505 20.5266C1.41136 18.5311 0.796455 16.2643 0.802799 13.9469C0.802799 6.68522 6.73617 0.78125 14.0262 0.78125C17.5634 0.78125 20.8851 2.15151 23.3765 4.63937C25.8741 7.12723 27.2497 10.436 27.2433 13.9532C27.2433 21.2148 21.3098 27.1189 14.0199 27.1189H14.0135C11.8012 27.1189 9.62685 26.5633 7.69342 25.5149L0.688721 27.3462ZM8.02308 23.1281L8.42241 23.3681C10.1086 24.3657 12.0421 24.8898 14.0135 24.8961H14.0199C20.0738 24.8961 25.0055 19.9898 25.0055 13.9532C25.0055 11.0296 23.8645 8.28285 21.7916 6.21162C19.7188 4.14049 16.9549 3.00393 14.0199 3.00393C7.95964 3.00393 3.02781 7.91025 3.02781 13.9468C3.02781 16.0117 3.60466 18.026 4.70771 19.7688L4.96758 20.1856L3.8583 24.2205L8.02308 23.1281Z" fill="black" fill-opacity="0.24"/>
<path d="M1.28857 26.6425L3.07904 20.1382C1.97499 18.2304 1.39421 16.0669 1.395 13.8648C1.395 6.94268 7.0545 1.31152 13.9972 1.31152C17.3716 1.31152 20.5332 2.6211 22.9121 4.99075C25.291 7.3605 26.5996 10.516 26.5996 13.871C26.5996 20.793 20.9401 26.4241 13.9973 26.4241H13.9911C11.8812 26.4241 9.809 25.8941 7.96843 24.8963L1.28857 26.6426V26.6425Z" fill="url(#paint0_linear_566_2188)"/>
<path d="M0.831543 27.0974L2.68457 20.3625C1.54521 18.3919 0.937855 16.1531 0.944199 13.8645C0.944199 6.69306 6.80397 0.862305 14.0036 0.862305C17.4968 0.862305 20.7772 2.21546 23.2377 4.67248C25.7042 7.12951 27.0627 10.3972 27.0565 13.8708C27.0565 21.0422 21.1967 26.873 13.9971 26.873H13.991C11.8103 26.8721 9.66454 26.3276 7.74929 25.289L0.831543 27.0975V27.0974ZM8.07479 22.9318L8.4692 23.1687C10.1345 24.1541 12.0439 24.6717 13.991 24.6779H13.9972C19.9759 24.6779 24.8466 19.8325 24.8466 13.8708C24.8466 10.9835 23.7197 8.27076 21.6725 6.22534C19.6253 4.17992 16.8958 3.05742 13.9972 3.05742C8.01223 3.05742 3.14165 7.90283 3.14165 13.8645C3.14165 15.9038 3.71128 17.8931 4.80065 19.6141L5.05736 20.0257L3.96175 24.0106L8.07479 22.9318Z" fill="white"/>
<path d="M10.7356 8.42006C10.4914 7.87749 10.2347 7.86496 10.0032 7.85875C9.81535 7.85254 9.59628 7.85254 9.37709 7.85254C9.15801 7.85254 8.80735 7.9336 8.5069 8.25783C8.20634 8.58217 7.36743 9.36792 7.36743 10.9707C7.36743 12.567 8.53818 14.1135 8.70093 14.3318C8.86368 14.5501 10.9609 17.9362 14.2727 19.2396C17.0273 20.3247 17.5908 20.1064 18.1855 20.0503C18.7865 19.9942 20.1138 19.2646 20.3892 18.5038C20.6584 17.743 20.6584 17.0944 20.577 16.9572C20.4956 16.82 20.2765 16.739 19.9509 16.5768C19.6254 16.4147 18.0227 15.6289 17.7223 15.5167C17.4217 15.4045 17.2027 15.3546 16.9898 15.6788C16.7706 16.003 16.1447 16.7327 15.9568 16.951C15.769 17.1692 15.5749 17.1942 15.2493 17.0321C14.9238 16.87 13.8721 16.5269 12.6263 15.4169C11.6559 14.5563 10.9986 13.4899 10.8107 13.1657C10.6229 12.8414 10.792 12.6667 10.9547 12.5047C11.0987 12.3612 11.2802 12.1242 11.4431 11.9372C11.6058 11.7501 11.6622 11.6129 11.7686 11.3946C11.875 11.1764 11.8249 10.9893 11.7435 10.8272C11.6622 10.665 11.0236 9.06231 10.7356 8.42006Z" fill="white"/>
</g>
<defs>
<linearGradient id="paint0_linear_566_2188" x1="13.9436" y1="26.6408" x2="13.9436" y2="1.31" gradientUnits="userSpaceOnUse">
<stop stop-color="#20B038"/>
<stop offset="1" stop-color="#60D66A"/>
</linearGradient>
<clipPath id="clip0_566_2188">
<rect width="28" height="28" fill="white"/>
</clipPath>
</defs>
</svg>
